<svg xmlns="http://www.w3.org/2000/svg" width="32" height="32" viewBox="0 0 32 32" fill="none">
  <rect width="32" height="32" rx="8" fill="#11ade0"/>
  <g transform="translate(6, 6) scale(0.8333)">
    <path d="M11 2a2 2 0 0 0-2 2v5a2 2 0 0 1-2 2 2 2 0 0 1-2-2V7" stroke="white" stroke-width="2" stroke-linecap="round" stroke-linejoin="round"/>
    <path d="M7 9H2v1a10 10 0 0 0 20 0v-1h-5" stroke="white" stroke-width="2" stroke-linecap="round" stroke-linejoin="round"/>
    <path d="M19 9V7a2 2 0 0 0-2-2 2 2 0 0 0-2 2v5a2 2 0 0 1-2 2 2 2 0 0 1-2-2V9" stroke="white" stroke-width="2" stroke-linecap="round" stroke-linejoin="round"/>
    <path d="M11 21a2 2 0 0 0 2-2 2 2 0 0 0-2-2 2 2 0 0 0-2 2 2 2 0 0 0 2 2Z" stroke="white" stroke-width="2" stroke-linecap="round" stroke-linejoin="round"/>
  </g>
</svg>
